# Aspose.3D Wavefront OBJ Exporter
# Copyright 2004-2020 Aspose Pty Ltd.
# File created: 10/12/2020 4:51:25 PM


#
# object obj_21640857
#

v 1.00575125217437744 -0.07389702647924423 1
v 1.00575125217437744 -0.07389698177576065 -3.2301397112632912E-09
v 0.76413720846176144 -0.03706799820065498 -1.6202935659848094E-09
v 0.76413720846176144 -0.03706804290413856 1
v 0.53325611352920536 -0.01157725322991609 -5.060579733040527E-10
v 0.53325611352920536 -0.0115772970020771 1
v 0.38578540086746216 -0.00208430062048137 -9.11078434917556E-11
v 0.38578540086746216 -0.00208434439264237 1
v 0.23981983959674836 -0.00180228450335562 -7.8780350298846E-11
v 0.23981983959674836 -0.0018023281591013 1
v 0.1466294527053833 -0.0098717100918293 -4.315061363779904E-10
v 0.1466294527053833 -0.0098717538639903 1
v 0.07833673804998398 -0.02365025877952575 -1.0337858347142515E-09
v 0.07833673804998398 -0.02365030162036419 1
v 0.045257817953825 -0.03537806868553161 -1.5464245439744673E-09
v 0.045257817953825 -0.0353781133890152 1
v 0.02931398525834083 -0.04365194588899612 -1.9080874658072844E-09
v 0.02931398525834083 -0.0436519905924797 1
v 0.02054955624043941 -0.049787487834692 -2.1762804891523047E-09
v 0.02054955624043941 -0.04978753253817558 1
v 0.01489099767059087 -0.05523980408906937 -2.414608735179513E-09
v 0.01489099767059087 -0.05523984879255295 1
v 0.01070258859544992 -0.06070448830723763 -2.653477881864319E-09
v 0.01070258859544992 -0.06070453301072121 1
v 0.00808989256620407 -0.06545624136924744 -2.8611832902925016E-09
v 0.00808989256620407 -0.06545628607273102 1
v 0.00660102721303701 -0.06952571868896484 -3.0390658878332033E-09
v 0.00660102721303701 -0.06952576339244843 1
v 0.00589564628899097 -0.07306153327226639 -3.193620701225086E-09
v 0.00589564628899097 -0.07306157797574997 1
v 0.00577529752627015 -0.07645637542009354 -3.342014220919509E-09
v 0.00577529752627015 -0.07645642012357712 1
v 0.00621103448793292 -0.07982509583234787 -3.489265543166198E-09
v 0.00621103448793292 -0.07982514053583145 1
v 0.00722156092524528 -0.08336397260427475 -3.643955359677875E-09
v 0.00722156092524528 -0.08336401730775833 1
v 0.00940888188779354 -0.08810673654079437 -3.8512677491553404E-09
v 0.00940888188779354 -0.08810678124427795 1
v 0.01317453570663929 -0.09367677569389344 -4.0947418789016865E-09
v 0.01317453570663929 -0.09367682039737702 1
v 0.01882179081439972 -0.09967031329870224 -4.356727423271423E-09
v 0.01882179081439972 -0.09967035800218582 1
v 0.02612734772264957 -0.10528755187988282 -4.602264791486732E-09
v 0.02612734772264957 -0.1052875965833664 1
v 0.04233291372656822 -0.11423225700855256 -4.993250701801344E-09
v 0.04233291372656822 -0.11423230171203614 1
v 0.07269494235515594 -0.1256541758775711 -5.492518440064487E-09
v 0.07269494235515594 -0.12565422058105468 1
v 0.13797728717327118 -0.13982026278972626 -6.1117377825326E-09
v 0.13797728717327118 -0.13982030749320984 1
v 0.241058349609375 -0.149204820394516 -6.521949202920041E-09
v 0.241058349609375 -0.14920486509799958 1
v 0.38396939635276792 -0.14893925189971924 -6.51034115506377E-09
v 0.38396939635276792 -0.14893929660320282 1
v 0.57495766878128048 -0.13557685911655426 -5.926252821808475E-09
v 0.57495766878128048 -0.13557690382003784 1
v 0.83547294139862064 -0.1040775254368782 -4.54937287841517E-09
v 0.83547294139862064 -0.10407757014036178 1
v 1.00575125217437744 -0.07705698162317276 -3.3682676647828202E-09
v 1.00575125217437744 -0.07705702632665634 1
v 1.01493513584136963 -0.07547702640295029 1
v 1.01493513584136963 -0.07547698169946671 -3.2992037990453582E-09
v 1.00575125217437744 -0.07705698162317276 -3.368267886827425E-09
v 1.00575125217437744 -0.07389698177576065 -3.230139933307896E-09
v 0.02931398525834083 -0.04365194588899612 -1.9080870217180745E-09
v 0.07833673804998398 -0.02365025877952575 -1.0337856126696465E-09
v 0.38578540086746216 -0.00208430062048137 -9.1107670019408E-11
v 0.53325611352920536 -0.01157725322991609 -5.06057806770599E-10
v 1.00575125217437744 -0.07705698162317276 -3.3682674427382153E-09
v 1.00575125217437744 -0.07389698177576065 -3.2301394892186863E-09
v 1.01493513584136963 -0.07547698169946671 -3.2992033549561484E-09
v 0.00808989256620407 -0.06545624136924744 -2.8611830682478967E-09
v 0.01070258859544992 -0.06070448830723763 -2.653477437775109E-09
v 0.01489099767059087 -0.05523980408906937 -2.4146085131349082E-09
v 0.02054955624043941 -0.049787487834692 -2.176280045063095E-09
v 0.00722156092524528 -0.08336397260427475 -3.6439549155886652E-09
v 0.00577529752627015 -0.07645637542009354 -3.3420139988749042E-09
v 0.00660102721303701 -0.06952571868896484 -3.0390656657885984E-09
# 78 vertices

vn 0.15068840980529786 0.98858135938644416 4.5726871178430883E-08
vn 0.15068848431110382 0.98858129978179936 4.5726892494712956E-08
vn 0.10973956435918808 0.9939603805541992 4.4103543928031286E-08
vn 0.06423882395029068 0.9979345798492432 4.411582921193258E-08
vn 0.06423882395029068 0.9979345798492432 4.2540264644230774E-08
vn 0.0019320691935718 0.999998152256012 4.386534868672243E-08
vn 0.00193207047414034 0.999998152256012 4.3865359344863464E-08
vn -0.08626793324947357 0.9962720274925232 4.355970517622154E-08
vn -0.08626796305179596 0.9962720274925232 4.3559719387076257E-08
vn -0.19777214527130128 0.980247974395752 4.6787498320099985E-08
vn -0.19777210056781768 0.98024809360504144 4.0103564913351875E-08
vn -0.33416000008583068 0.9425163865089416 4.312121859584295E-08
vn -0.33416011929512024 0.9425163865089416 3.9804209706062466E-08
vn -0.46061128377914432 0.88760191202163696 3.888542821073315E-08
vn -0.57349002361297608 0.81921261548995968 3.8084749576228205E-08
vn -0.5734901428222656 0.81921249628067024 3.264408121594897E-08
vn -0.69386172294616696 0.7201082706451416 2.9630026432414525E-08
vn -0.69386184215545656 0.72010809183120728 3.7037537481410254E-08
vn -0.79368925094604496 0.60832339525222776 2.536219412263563E-08
vn -0.79368925094604496 0.60832339525222776 2.958922706852718E-08
vn -0.87627565860748288 0.48181012272834776 2.146826894033893E-08
vn -0.87627577781677248 0.48180985450744632 2.146827249305261E-08
vn -0.93912053108215328 0.34358811378479004 1.3432685186387516E-08
vn -0.93912053108215328 0.34358811378479004 1.6790856705029E-08
vn -0.98067557811737056 0.19564086198806764 1.2108135827304523E-08
vn -0.98067557811737056 0.19564086198806764 6.054067913652261E-09
vn -0.9993721842765808 0.03542835637927055 1.6064199970244886E-09
vn -0.9993721842765808 0.03542808070778846 1.6064199970244886E-09
vn -0.9917380809783936 -0.12827925384044648 -4.284026910994498E-09
vn -0.9917380809783936 -0.12827925384044648 -6.426040144447143E-09
vn -0.96156567335128784 -0.27457526326179504 -1.1861917670330513E-08
vn -0.96156579256057744 -0.27457502484321596 -1.1861919446687352E-08
vn -0.90807938575744624 -0.41879820823669432 -2.2289608381242942E-08
vn -0.90807938575744624 -0.41879820823669432 -1.1144804190621471E-08
vn -0.82844310998916624 -0.56007325649261472 -2.597202808374277E-08
vn -0.72781944274902336 -0.6857687830924988 -1.4136782411355853E-08
vn -0.72781926393508912 -0.68576902151107792 -4.241033479956968E-08
vn -0.60954582691192624 -0.79275089502334592 -2.526525300083904E-08
vn -0.60954564809799192 -0.79275101423263552 -3.789786617858226E-08
vn -0.48323071002960208 -0.87549316883087152 -3.773548229446533E-08
vn -0.4832307398319244 -0.87549299001693728 -5.031397876109622E-08
vn -0.35210043191909792 -0.93596225976943968 -4.3064446231255715E-08
vn -0.35210052132606508 -0.93596225976943968 -2.8709639110502394E-08
vn -0.21206188201904296 -0.9772562384605408 -5.576642791993436E-08
vn -0.21206188201904296 -0.9772562384605408 -2.788321395996718E-08
vn -0.09066558629274368 -0.99588137865066528 -5.398586111482473E-08
vn -0.09066560864448548 -0.99588137865066528 -7.198116946938171E-08
vn 0.0018582745688036 -0.9999982118606568 -2.6067144887065297E-08
vn 0.00185827538371086 -0.9999982118606568 -5.2134311090412666E-08
vn 0.06979386508464813 -0.99756145477294928 -5.8373323952309875E-08
vn 0.06979385018348694 -0.99756151437759392 -5.837330618874148E-08
vn 0.12003735452890396 -0.99276930093765264 -2.8392600270876756E-08
vn 0.12003742158412934 -0.99276942014694208 -5.678523251617662E-08
vn 0.15672363340854644 -0.98764240741729744 -4.321460167489022E-08
vn 0.16954964399337768 -0.98552167415618896 -4.997006897156098E-08
vn 0.16954964399337768 -0.98552167415618896 -3.747755172867073E-08
vn 0.16954964399337768 0.98552167415618896 4.997006897156098E-08
vn 0.16954964399337768 0.98552167415618896 3.747755172867073E-08
vn 0 0 0.9999999403953552
vn 0 0 1
vn -5.49322408005537E-07 0 0.9999999403953552
vn 7.562491646240233E-07 0 1
vn -3.4375588597868045E-07 0 0.9999999403953552
vn 2.92183415240288E-07 0 1
vn -1.063721242644533E-06 0 1
vn 1.126141114582424E-06 0 1
vn 6.958863976188169E-15 4.371138118131057E-08 -1
vn 0 4.371142026116104E-08 -1
vn 9.43920641519394E-15 4.3711370523169535E-08 -1
vn -8.237326802379343E-15 4.371139183945161E-08 -1
vn 2.5757361365584975E-15 4.371142026116104E-08 -1
vn 8.238257691588376E-15 4.371138828673793E-08 -0.9999999403953552
vn -7.161503479808078E-15 4.37113598650285E-08 -1
vn 0 4.371139183945161E-08 -1
vn 2.3547179238073016E-15 4.3711395392165286E-08 -1
vn -1.980892426272588E-15 4.371138473402425E-08 -1
vn -5.090595485802236E-16 4.371138828673793E-08 -1
vn 0 4.3711398944878965E-08 -1
vn 2.032953612309679E-15 4.371134920688746E-08 -0.9999999403953552
vn -1.0404855315282891E-15 4.371141315573368E-08 -1
vn 1.817653591930455E-14 4.3711516184430366E-08 -0.9999999403953552
vn 0 4.3711519737144044E-08 -0.9999999403953552
vn 0 4.3711313679750674E-08 -1
vn 0 4.371137762859689E-08 -1
vn 1.3229005293557278E-13 4.37114771045799E-08 -1
vn -1.3854991101885233E-13 4.371136341774218E-08 -1
vn -2.7016844301010548E-14 4.371137762859689E-08 -0.9999999403953552
vn -1.482091325480297E-14 4.371139183945161E-08 -1
vn -1.829705854330347E-14 4.3711338548746426E-08 -1
vn 9.974212075844133E-14 4.3711459341011505E-08 -1
vn -5.431133922586748E-14 4.3711374075883214E-08 -1
vn 1.466220807960772E-14 4.371135631231482E-08 -1
vn 1.8408640497374895E-12 4.3711430919302074E-08 -1
vn -2.947175923445622E-13 4.371126038904549E-08 -1
vn -2.523725044049907E-13 4.371139183945161E-08 -1
# 95 vertex normals

g obj_21640857
s 1
f 1//1 2//1 3//1
f 1//2 3//2 4//2
f 4//3 3//3 5//3
f 4//3 5//3 6//3
f 6//4 5//4 7//4
f 6//5 7//5 8//5
f 8//6 7//6 9//6
f 8//7 9//7 10//7
f 10//8 9//8 11//8
f 10//9 11//9 12//9
f 12//10 11//10 13//10
f 12//11 13//11 14//11
f 14//12 13//12 15//12
f 14//13 15//13 16//13
f 16//14 15//14 17//14
f 16//14 17//14 18//14
f 18//15 17//15 19//15
f 18//16 19//16 20//16
f 20//17 19//17 21//17
f 20//18 21//18 22//18
f 22//19 21//19 23//19
f 22//20 23//20 24//20
f 24//21 23//21 25//21
f 24//22 25//22 26//22
f 26//23 25//23 27//23
f 26//24 27//24 28//24
f 28//25 27//25 29//25
f 28//26 29//26 30//26
f 30//27 29//27 31//27
f 30//28 31//28 32//28
f 32//29 31//29 33//29
f 32//30 33//30 34//30
f 34//31 33//31 35//31
f 34//32 35//32 36//32
f 36//33 35//33 37//33
f 36//34 37//34 38//34
f 38//35 37//35 39//35
f 38//35 39//35 40//35
f 40//36 39//36 41//36
f 40//37 41//37 42//37
f 42//38 41//38 43//38
f 42//39 43//39 44//39
f 44//40 43//40 45//40
f 44//41 45//41 46//41
f 46//42 45//42 47//42
f 46//43 47//43 48//43
f 48//44 47//44 49//44
f 48//45 49//45 50//45
f 50//46 49//46 51//46
f 50//47 51//47 52//47
f 52//48 51//48 53//48
f 52//49 53//49 54//49
f 54//50 53//50 55//50
f 54//51 55//51 56//51
f 56//52 55//52 57//52
f 56//53 57//53 58//53
f 58//54 57//54 59//54
f 58//54 59//54 60//54
f 61//55 60//55 62//55
f 62//56 60//56 63//56
f 1//57 61//57 64//57
f 64//58 61//58 62//58
f 60//59 61//59 1//59
f 46//60 48//60 18//60
f 60//60 1//60 58//60
f 58//61 1//61 4//61
f 58//62 4//62 56//62
f 56//59 4//59 6//59
f 56//60 6//60 54//60
f 54//63 6//63 8//63
f 54//60 8//60 52//60
f 52//64 8//64 10//64
f 52//60 10//60 50//60
f 46//60 18//60 44//60
f 10//60 12//60 50//60
f 50//65 12//65 14//65
f 50//60 14//60 48//60
f 48//66 14//66 16//66
f 48//60 16//60 18//60
f 20//60 22//60 34//60
f 34//60 22//60 24//60
f 34//60 24//60 26//60
f 38//60 40//60 18//60
f 18//60 40//60 42//60
f 18//60 42//60 44//60
f 26//60 28//60 34//60
f 34//60 28//60 30//60
f 34//60 30//60 32//60
f 20//60 34//60 18//60
f 18//59 34//59 36//59
f 18//60 36//60 38//60
f 65//67 47//67 45//67
f 65//68 15//68 47//68
f 47//69 15//69 66//69
f 47//70 66//70 49//70
f 49//71 66//71 11//71
f 49//72 11//72 51//72
f 51//73 11//73 9//73
f 51//74 9//74 53//74
f 53//75 9//75 67//75
f 53//76 67//76 55//76
f 55//77 67//77 68//77
f 55//78 68//78 57//78
f 57//79 68//79 3//79
f 57//80 3//80 69//80
f 69//81 3//81 70//81
f 69//82 70//82 71//82
f 72//83 73//83 33//83
f 73//84 74//84 33//84
f 33//85 74//85 75//85
f 33//86 75//86 65//86
f 45//87 43//87 65//87
f 65//88 43//88 41//88
f 65//89 41//89 39//89
f 39//90 37//90 65//90
f 65//91 37//91 76//91
f 65//92 76//92 33//92
f 77//93 29//93 33//93
f 33//94 29//94 78//94
f 33//95 78//95 72//95
#120 polygons

